<svg width="576" height="636" viewBox="0 0 576 636" fill="none" xmlns="http://www.w3.org/2000/svg">
<path d="M575.86 317.587C575.86 304.257 569.31 291.777 558.31 284.217L524.88 261.237L558.31 238.257C569.31 230.707 575.86 218.227 575.86 204.887C575.86 191.547 569.31 179.078 558.31 171.518L325.76 11.6775C303.14 -3.8925 272.72 -3.8925 250.09 11.6775L17.55 171.537C6.55 179.097 0 191.568 0 204.908C0 218.248 6.55 230.717 17.55 238.277L50.98 261.258L17.55 284.237C6.55 291.787 0 304.267 0 317.607C0 330.947 6.55 343.418 17.55 350.978L50.98 373.957L17.55 396.938C6.55 404.488 0 416.967 0 430.307C0 443.647 6.55 456.117 17.55 463.677L250.1 623.547C261.41 631.327 274.68 635.237 287.93 635.237C301.18 635.237 314.45 631.337 325.76 623.547L558.31 463.677C569.31 456.127 575.86 443.647 575.86 430.307C575.86 416.967 569.31 404.497 558.31 396.938L524.88 373.957L558.31 350.978C569.31 343.428 575.86 330.947 575.86 317.607V317.587ZM29.36 221.077C23.96 217.367 20.87 211.458 20.87 204.908C20.87 198.358 23.96 192.448 29.36 188.738L261.93 28.8675C277.48 18.1675 298.39 18.1675 313.93 28.8675L546.5 188.738C551.9 192.448 554.99 198.358 554.99 204.908C554.99 211.458 551.9 217.367 546.5 221.077L506.48 248.577L325.77 124.357C303.15 108.787 272.73 108.787 250.1 124.357L69.39 248.577L29.37 221.077H29.36ZM250.1 398.138C261.41 405.918 274.68 409.827 287.93 409.827C301.18 409.827 314.45 405.928 325.76 398.138L424.51 330.258L488.05 373.938L313.93 493.638C298.38 504.338 277.47 504.338 261.93 493.638L87.81 373.938L151.35 330.258L250.1 398.138ZM169.76 317.587L261.93 254.238C277.48 243.528 298.39 243.528 313.93 254.238L406.1 317.587L313.93 380.938C298.38 391.648 277.47 391.648 261.93 380.938L169.76 317.587ZM325.76 237.037C303.14 221.467 272.72 221.467 250.09 237.037L151.34 304.918L87.8 261.237L261.92 141.537C277.47 130.827 298.38 130.827 313.92 141.537L488.04 261.237L424.5 304.918L325.75 237.037H325.76ZM29.36 333.767C23.96 330.057 20.87 324.148 20.87 317.598C20.87 311.048 23.96 305.137 29.36 301.427L69.38 273.927L132.92 317.607L69.38 361.288L29.36 333.788V333.767ZM546.5 414.107C551.9 417.817 554.99 423.727 554.99 430.277C554.99 436.827 551.9 442.738 546.5 446.448L313.93 606.318C298.38 617.028 277.47 617.028 261.93 606.318L29.36 446.448C23.96 442.738 20.87 436.827 20.87 430.277C20.87 423.727 23.96 417.817 29.36 414.107L69.38 386.607L250.09 510.827C261.4 518.607 274.67 522.518 287.92 522.518C301.17 522.518 314.44 518.617 325.75 510.827L506.46 386.607L546.48 414.107H546.5ZM546.5 333.767L506.48 361.267L442.94 317.587L506.48 273.908L546.5 301.408C551.9 305.118 554.99 311.027 554.99 317.577C554.99 324.127 551.9 330.037 546.5 333.747V333.767Z" fill="black"/>
</svg>
